<?xml version="1.0" encoding="UTF-8" standalone="no"?>
<svg
   xmlns:dc="http://purl.org/dc/elements/1.1/"
   xmlns:cc="http://creativecommons.org/ns#"
   xmlns:rdf="http://www.w3.org/1999/02/22-rdf-syntax-ns#"
   xmlns:svg="http://www.w3.org/2000/svg"
   xmlns="http://www.w3.org/2000/svg"
   id="Ebene_1"
   data-name="Ebene 1"
   viewBox="0 0 200.00001 125"
   version="1.1"
   width="200"
   height="125">
  <metadata
     id="metadata15">
    <rdf:RDF>
      <cc:Work
         rdf:about="">
        <dc:format>image/svg+xml</dc:format>
        <dc:type
           rdf:resource="http://purl.org/dc/dcmitype/StillImage" />
        <dc:title></dc:title>
      </cc:Work>
    </rdf:RDF>
  </metadata>
  <defs
     id="defs4">
    <style
       id="style2">.cls-1{fill:#00385f;}</style>
  </defs>
  <g
     id="g4543"
     transform="matrix(0.27599195,0,0,0.2759924,21.625854,106.07369)">
    <path
       style="fill:#ffffff;fill-opacity:1"
       id="path6"
       d="m 382.24258,-6.673862 h 10.5 v -29.2 c 3.09,-2.56 6.79,-4.41 10.23,-4.41 5.38,0 6.44,4.15 6.44,9.26 v 24.35 h 10.59 v -27.61 c 0,-11.91 -6.8,-15.17 -13.41,-15.17 -5.2,0 -9.88,2.29 -14.29,5.73 l -1.06,-4.67 h -9 z m -35.14,-25.27 c 0,-5 2.91,-9.44 8.11,-9.44 5.56,0 7.85,4.68 8,9.44 z m 10.85,26.2 a 28,28 0 0 0 14.73,-3.88 l -3.18,-7.32 a 21,21 0 0 1 -10.58,2.82 c -7,0 -11.56,-4.15 -11.73,-10.59 h 26.72 v -2.43 c 0,-13.84 -6.79,-22.31 -18.52,-22.31 -11.91,0 -18.79,9.44 -18.79,22 0,11.29 6.09,21.7 21.35,21.7 m -45.88,-20.19 c -4.68,0 -7.32,-3.62 -7.32,-7.76 0,-5 3.08,-7.76 7.23,-7.76 4.67,0 7.5,3.7 7.5,7.85 0,5 -3.18,7.67 -7.41,7.67 m 0.7,32.81 c -7,0 -11.38,-2.55 -11.38,-6.69999997 0,-2.73000003 2,-4.50000003 3.36,-5.47000003 5.64,2.21 18.61,1 18.61,7 0,3.09 -4.24,5.2 -10.59,5.2 m -1.45,7.33 c 14.47,0 22,-6.17 22,-13.75999997 0,-15.61000003 -27.43,-8.64000003 -27.43,-16.14000003 a 5.89,5.89 0 0 1 1.06,-3.09 17.2,17.2 0 0 0 5.12,0.71 c 10.14,0 17.28,-6.09 17.28,-15.44 a 14.34,14.34 0 0 0 -3.7,-9.88 6.66,6.66 0 0 1 3.09,-0.7 12.58,12.58 0 0 1 3.08,0.44 l 2.12,-7.59 a 26.16,26.16 0 0 0 -2.82,-0.17 c -5.12,0 -7.85,1.41 -10.06,3.61 a 0.92,0.92 0 0 1 -1.06,0.18 17.14,17.14 0 0 0 -8.29,-1.85 c -11.38,0 -17,7.67 -17,15.35 0,5.55 2.56,10.4 7,13 -3.44,2.38 -5,5.38 -5,7.85 a 5.9,5.9 0 0 0 2.73,5.21 c -4.32,1.85 -7.49,5.47 -7.49,10 0,7.24 7.14,12.26 19.4,12.26 m -50.51,-46.16 c 0,-5 2.91,-9.44 8.11,-9.44 5.56,0 7.85,4.68 8,9.44 z m 10.85,26.2 a 28,28 0 0 0 14.73,-3.88 l -3.18,-7.32 a 21,21 0 0 1 -10.58,2.82 c -7,0 -11.56,-4.15 -11.73,-10.59 h 26.72 v -2.43 c 0,-13.84 -6.79,-22.31 -18.52,-22.31 -11.91,0 -18.79,9.44 -18.79,22 0,11.29 6.09,21.7 21.35,21.7 m -35.37,-49.44 a 6.31,6.31 0 1 0 -6.43,-6.26 6.21,6.21 0 0 0 6.43,6.26 m -5.29,48.52 h 10.59 v -41.72 h -10.57 z m -47.36,-4.15 c 4.41,3.09 10.76,5 17.55,5 11.91,0 20.73,-6.35 20.73,-16.67 0,-18.44 -25.14,-17 -25.14,-27.7 0,-4.67 3.88,-6.26 7.94,-6.26 a 30.23,30.23 0 0 1 13.85,3.7 v -9.7 a 32.91,32.91 0 0 0 -14.21,-2.91 c -12.08,0 -18.87,7.5 -18.87,16 0,17.73 25.14,16.32 25.14,27.7 0,5 -4.85,6.88 -9.71,6.88 a 22.89,22.89 0 0 1 -13.12,-4.16 z"
       class="cls-1" />
    <path
       style="fill:#ffffff;fill-opacity:1"
       id="path8"
       d="m 579.78258,-85.873862 c 4.15,0 9.18,-1.24 12.17,-3.27 l -3.17,-7.23 a 11.8,11.8 0 0 1 -6.35,2 c -2.74,0 -4.06,-1.41 -4.06,-5.29 v -20.609998 h 10.06 l 2.55,-8.2 h -12.61 v -12.8 l -10.5,3.09 v 9.71 h -7.49 v 8.2 h 7.49 v 23.199998 c 0,7 4.5,11.2 11.91,11.2 m -34,-48.869998 a 5.43,5.43 0 1 0 -5.38,-5.38 5.34,5.34 0 0 0 5.38,5.38 m -16.85,0 a 5.43,5.43 0 1 0 -5.38,-5.38 5.42,5.42 0 0 0 5.38,5.38 m 14.55,28.58 v 8.909998 a 12.89,12.89 0 0 1 -8.11,3.09 c -3.79,0 -6.18,-2.12 -6.18,-5.74 a 5,5 0 0 1 2.56,-4.759998 13.33,13.33 0 0 1 6.09,-1.32 z m 2.47,19.409998 h 8.82 c -0.61,-2.21 -0.79,-5.83 -0.79,-10.68 v -16.929998 c 0,-10.06 -5.56,-15.17 -16.76,-15.17 a 32.86,32.86 0 0 0 -16.14,4.14 l 3.44,6.79 a 23.73,23.73 0 0 1 10.94,-2.91 c 4.85,0 8,2.12 8,7 v 1.32 l -7.14,0.25 a 25.9,25.9 0 0 0 -10.76,2.38 c -4.32,2.21 -7.06,5.73 -7.06,11.379998 0,8 5.91,13.32 13.85,13.32 a 17.22,17.22 0 0 0 12,-4.85 z m -42.53,0.88 c 4.15,0 9.17,-1.24 12.17,-3.27 l -3.17,-7.23 a 11.8,11.8 0 0 1 -6.35,2 c -2.74,0 -4.06,-1.41 -4.06,-5.29 v -20.609998 h 10 l 2.56,-8.2 h -12.54 v -12.8 l -10.5,3.09 v 9.71 h -7.5 v 8.2 h 7.5 v 23.199998 c 0,7 4.5,11.2 11.91,11.2 m -31.83,-49.399998 a 6.31,6.31 0 1 0 -6.44,-6.26 6.22,6.22 0 0 0 6.44,6.26 m -5.29,48.519998 h 10.58 v -41.729998 h -10.58 z m -40.62,-3.19 a 29.75,29.75 0 0 0 15.35,4.06 c 9,0 16.94,-3.79 16.94,-13 0,-14.549998 -19.58,-11.999998 -19.58,-18.609998 0,-2.73 2.38,-3.79 5.91,-3.79 a 29.72,29.72 0 0 1 11.81,2.64 v -8.9 a 36.23,36.23 0 0 0 -12.26,-2 c -9.79,0 -15.78,5.2 -15.78,12.61 0,13.94 19.58,11.29 19.58,18.349998 0,3.17 -3.09,4.41 -7.32,4.41 a 21.32,21.32 0 0 1 -11.38,-3.44 z m -25.72,3.18 h 10.5 v -29.449998 c 3.44,-3 5.73,-4.15 8.46,-4.15 a 8.9,8.9 0 0 1 4.77,1.41 c 0,0 2.53,-9.56 2.55,-9.56 a 11.53,11.53 0 0 0 -4.76,-1 c -4.23,0 -7.67,1.94 -11.47,5.73 l -1.14,-4.67 h -8.91 z m -35.66,-25.309998 c 0,-5 2.91,-9.44 8.12,-9.44 5.55,0 7.85,4.68 8,9.44 z m 10.85,26.199998 a 28,28 0 0 0 14.73,-3.88 l -3.14,-7.19 a 20.92,20.92 0 0 1 -10.59,2.83 c -7,0 -11.55,-4.15 -11.73,-10.589998 h 26.73 v -2.47 c 0,-13.85 -6.79,-22.31 -18.53,-22.31 -11.9,0 -18.78,9.43 -18.78,22 0,11.289998 6.08,21.699998 21.34,21.699998 m -48.18,-0.62 h 7.94 l 16.93,-41.999998 h -10.57 l -10.14,28.4 h -0.18 l -10.32,-28.4 h -10.68 z m -27.56,-48.869998 a 6.31,6.31 0 1 0 -6.44,-6.26 6.21,6.21 0 0 0 6.44,6.26 m -5.3,48.519998 h 10.59 v -41.729998 h -10.59 z m -48.38,0 h 10.54 v -29.189998 c 3.09,-2.56 6.79,-4.41 10.23,-4.41 5.38,0 6.44,4.15 6.44,9.26 v 24.349998 h 10.59 v -27.619998 c 0,-11.91 -6.8,-15.17 -13.41,-15.17 -5.21,0 -9.88,2.29 -14.29,5.73 l -1.06,-4.67 h -9 z m -35.63,0.88 c 10.67,0 18.26,-3.71 21.87,-11.2 a 25.66,25.66 0 0 0 2.21,-11.379998 v -36.43 h -10.59 v 35.63 a 17.76,17.76 0 0 1 -1.58,7.94 c -2,4.149998 -6.09,6.529998 -11.91,6.529998 -5.82,0 -9.88,-2.38 -11.91,-6.529998 a 17.48,17.48 0 0 1 -1.59,-7.85 v -35.72 h -10.58 v 36.43 a 25.52,25.52 0 0 0 2.2,11.289998 c 3.53,7.58 11.12,11.29 21.88,11.29"
       class="cls-1" />
    <path
       style="fill:#ffffff;fill-opacity:1"
       id="path10"
       d="m 83.892581,-22.733862 c -9,10 -23,16.36 -41.46,16.36 -21.23,0 -39.0900004,-8.5 -50.5800004,-22 -11.2399996,-13.22 -15.7299996,-30.57 -15.7299996,-55.43 l -0.13,-61.069998 h 61.57 v 60.069998 c 0,11.11 1.13,16.11 2.37,19.23 2.38,5.87 9.25,13.11 20.74,13.11 10.61,0 18,-6.36 20.73,-13.11 1.24,-3.12 2.37,-8.12 2.37,-19.23 v -54.829998 l -14.11,6 v -38.23 l 44.999999,-26.85 45,26.85 v 38.22 l -14.24,-6 V -7.003862 H 83.892581 Z"
       class="cls-1" />
  </g>
</svg>
